<svg width="148" height="40" viewBox="0 0 148 40" fill="none" xmlns="http://www.w3.org/2000/svg">
<g clip-path="url(#clip0_2_64)">
<path d="M20.3407 37.4124C18.1154 37.8032 15.8509 37.9203 13.5085 38.2324L6.36369 17.3062V39.1305C4.1384 39.3647 2.10828 39.677 0 39.9893V0.0106506H5.93449L14.055 22.6942V0.0106506H20.3407V37.4124ZM32.6389 14.6513C35.0596 14.6513 38.7685 14.5341 40.9938 14.5341V20.7807C38.2217 20.7807 34.9814 20.7807 32.6389 20.8978V30.1899C36.3089 29.9557 39.9788 29.6431 43.6876 29.5259V35.538L26.392 36.9048V0.0106506H43.6876V6.25733H32.6389V14.6513ZM66.9174 6.25747H60.4365V34.9921C58.3282 34.9921 56.2199 34.9921 54.1901 35.07V6.25747H47.7093V0.0106506H66.9176L66.9174 6.25747ZM77.0681 14.2219H85.6184V20.4685H77.0681V34.6408H70.9382V0.0106506H88.3903V6.25733H77.0681V14.2219ZM98.5411 29.1748C102.094 29.2526 105.686 29.5264 109.16 29.7213V35.8899C103.578 35.5383 97.9946 35.1874 92.2945 35.07V0.0106506H98.5411V29.1748ZM114.431 36.3194C116.422 36.4367 118.53 36.5539 120.561 36.7878V0.0106506H114.431V36.3194ZM147.929 0.0106506L140.003 19.024L147.929 39.9893C145.586 39.677 143.244 39.2475 140.901 38.857L136.412 27.3009L131.844 37.9203C129.579 37.5296 127.393 37.4124 125.129 37.1001L133.171 18.7895L125.91 0.0106506H132.624L136.724 10.5129L141.097 0.0106506H147.929Z" fill="#B1BAD1"/>
</g>
<defs>
<clipPath id="clip0_2_64">
<rect width="147.929" height="40" fill="white"/>
</clipPath>
</defs>
</svg>
