<svg width="204" height="45" viewBox="0 0 204 45" fill="none" xmlns="http://www.w3.org/2000/svg">
<g clip-path="url(#clip0_2_66)">
<path d="M198.677 0.0821269C200.237 1.0117e-05 201.798 1.0117e-05 203.358 0.0410685C198.677 9.81296 194.161 19.667 189.603 29.4799H185.785C183.691 24.5529 181.227 19.7491 179.051 14.8221C180.571 14.781 182.09 14.781 183.609 14.8221C184.923 17.8604 186.483 20.7755 187.674 23.8139C191.328 15.8896 195.105 8.00639 198.677 0.0821269Z" fill="#B1BAD1"/>
<path d="M81.1271 4.27008C84.1244 4.31114 87.1627 4.31114 90.1599 4.27008C90.1189 6.93888 90.1189 9.64873 90.1599 12.3175C87.1627 12.2765 84.1244 12.3175 81.086 12.2765C81.1682 9.60767 81.086 6.93888 81.1271 4.27008ZM35.6755 15.7664C41.8342 12.2765 50.785 13.4672 54.9319 19.5027C57.4775 23.0748 58.2165 27.5912 58.1755 31.8613C51.1134 31.9024 44.0514 31.8613 36.9894 31.9024C37.3178 34.0785 38.2622 36.3777 40.274 37.5274C43.1481 39.2108 47.6645 38.7181 49.1016 35.3923C52.0167 35.3102 54.8908 35.3102 57.8059 35.3923C56.9027 38.7181 54.4802 41.5511 51.4419 43.1113C48.1572 44.9179 44.2156 45.2463 40.5614 44.6305C36.7019 44.0146 33.1299 41.8385 30.9538 38.5949C28.5724 35.146 27.9565 30.7527 28.4903 26.688C29.024 22.2126 31.6928 17.9836 35.6755 15.7664ZM40.4793 20.8987C38.4675 21.8431 37.4821 24.0192 37.0304 26.1131H49.1016C48.8552 24.5119 48.2804 22.8285 47.0487 21.7199C45.3242 20.0365 42.5733 19.9954 40.4793 20.8987ZM130.356 14.2062C135.201 13.344 140.58 14.3704 144.316 17.7372C150.68 23.4033 150.967 34.3659 145.055 40.4425C140.374 45.3285 132.532 46.2318 126.538 43.4808C121.898 41.3869 118.737 36.6651 118.203 31.656C117.998 28.7409 118.121 25.7436 119.311 23.0338C121.118 18.3942 125.511 15.0274 130.356 14.2062ZM131.383 20.8987C128.837 21.802 127.646 24.5529 127.277 27.0575C126.989 30.1779 127.03 33.7089 129.042 36.2956C131.218 39.1287 136.022 39.0465 138.198 36.2546C140.005 33.9964 140.292 30.917 140.087 28.125C139.964 25.6615 139.102 23.0338 137.049 21.5146C135.406 20.406 133.23 20.2418 131.383 20.8987ZM162.587 15.8896C165.584 13.5493 169.854 13.3029 173.303 14.6989C175.767 15.7664 177.614 17.9425 178.476 20.4471C179.462 23.0338 179.174 25.8257 179.174 28.5356C179.174 33.7089 179.133 38.8823 179.216 44.0146C176.218 44.0557 173.221 44.0146 170.183 44.0557V26.3184C170.183 24.7993 169.608 23.1569 168.335 22.2126C166.405 20.8987 163.613 21.1451 161.971 22.7874C160.657 24.1013 160.082 25.99 160.123 27.7965V44.0557C157.167 44.0146 154.17 44.0557 151.214 44.0146C151.214 34.2427 151.255 24.4708 151.214 14.6989C154.129 14.74 157.003 14.6579 159.918 14.74C159.877 16.0949 159.877 17.4498 159.836 18.8048C160.739 17.8193 161.478 16.7108 162.587 15.8896ZM0.0778809 14.781H9.43919C11.3279 21.063 13.3397 27.3449 15.1052 33.6679C17.2813 27.4681 18.9237 21.063 20.9766 14.781C23.9739 14.74 27.0122 14.781 30.0094 14.74C26.5605 24.5119 23.1937 34.2838 19.7859 44.0557C16.6655 44.0557 13.545 44.0146 10.4246 44.0967C6.85251 34.3659 3.69102 24.4708 0.0778809 14.781ZM60.2284 14.74H68.8506C68.8096 16.3823 68.8506 18.0246 68.7685 19.667C69.5076 18.8458 70.0413 17.8193 70.8214 17.0392C72.7512 14.9042 75.9127 14.042 78.7047 14.781C78.6636 17.3677 78.6636 19.9544 78.7047 22.5C76.4875 22.2537 74.024 22.3358 72.1353 23.6907C70.1235 25.0867 69.2202 27.6734 69.2612 30.0547C69.2202 34.7354 69.2612 39.375 69.2612 44.0557C66.264 44.0557 63.2257 44.0146 60.2284 44.0967C60.2694 34.2838 60.2694 24.5119 60.2284 14.74ZM81.1271 14.781C84.1654 14.74 87.1627 14.781 90.201 14.74C90.1599 24.5119 90.201 34.2838 90.201 44.0557C87.2037 44.0146 84.1654 44.0557 81.1271 44.0557V14.781ZM92.6234 14.74C100.794 14.781 108.965 14.74 117.094 14.781C117.012 17.0392 117.094 19.2564 117.053 21.5146C116.766 22.0894 116.273 22.5 115.904 22.9927C111.716 27.6323 107.61 32.3951 103.34 36.9936C108.144 37.0757 112.947 36.9936 117.751 37.0347V44.0967C109.375 44.0557 100.999 44.0557 92.6234 44.0967V37.281C97.0167 32.354 101.369 27.4681 105.803 22.5821C105.926 22.3358 106.46 22.0894 106.173 21.761C101.656 21.8841 97.1399 21.761 92.6234 21.8431V14.74Z" fill="#B1BAD1"/>
</g>
<defs>
<clipPath id="clip0_2_66">
<rect width="203.436" height="45" fill="white"/>
</clipPath>
</defs>
</svg>
